<svg width="87" height="145" viewBox="0 0 87 145" fill="none" xmlns="http://www.w3.org/2000/svg">
<path d="M55.5 86.5C72.6208 86.5 86.5 72.6208 86.5 55.5C86.5 38.3792 72.6208 24.5 55.5 24.5C38.3792 24.5 24.5 38.3792 24.5 55.5C24.5 72.6208 38.3792 86.5 55.5 86.5Z" stroke="black"/>
<path d="M53 46C53.9122 47.2381 54.9756 48.8497 55.7365 51.5714C56.4948 54.2838 57.5609 56.5238 56.6487 59" stroke="black" stroke-width="4" stroke-linecap="round"/>
<path d="M72 41C73 42 75 45.5 75 45.5C75 45.5 77 49.5 76 51.5" stroke="black" stroke-width="4" stroke-linecap="round"/>
<path d="M44.5 80C44.5 80 49.5394 75.4546 53 74.5C56.5013 73.5342 56.5 70 59 67.5C64 62.5 74 66.5 74 68C74 72.0311 68.5 71.5 66 68C63.5 64.5 64.5526 61.7129 69 60.5C74.5 59 77 62 79.5 64.5" stroke="black" stroke-linecap="round"/>
<path d="M31.9213 75.7307C32.07 75.9634 32.002 76.2726 31.7693 76.4213C31.5366 76.57 31.2274 76.502 31.0787 76.2693L31.9213 75.7307ZM16.6382 101.5C16.6382 101.776 16.4143 102 16.1382 102C15.8621 102 15.6382 101.776 15.6382 101.5H16.6382ZM29 88.5L29.18 88.0335C29.382 88.1115 29.5109 88.3106 29.4993 88.5269C29.4876 88.7431 29.3381 88.9273 29.1288 88.9831L29 88.5ZM31.0787 76.2693C29.7018 74.1152 26.9762 72.8924 23.8288 72.5021C20.6944 72.1135 17.2528 72.5678 14.5922 73.6491C11.8933 74.7459 10.1908 76.3961 10.1249 78.2902C10.0585 80.1983 11.6314 82.7086 16.3957 85.5714L15.8807 86.4286C11.0759 83.5414 9.03836 80.7595 9.12548 78.2554C9.21308 75.7374 11.428 73.8555 14.2157 72.7226C17.0417 71.5742 20.6559 71.1011 23.9518 71.5097C27.2347 71.9168 30.3138 73.2159 31.9213 75.7307L31.0787 76.2693ZM16.3957 85.5714C18.4866 86.8278 21.293 87.3255 23.7916 87.5596C25.0348 87.6761 26.1785 87.7258 27.1073 87.7772C27.5681 87.8028 27.9812 87.8291 28.3208 87.8649C28.6464 87.8993 28.9556 87.947 29.18 88.0335L28.82 88.9665C28.7318 88.9324 28.5417 88.8938 28.2157 88.8594C27.9036 88.8264 27.5128 88.8013 27.0519 88.7757C26.1372 88.725 24.966 88.674 23.6983 88.5552C21.1751 88.3188 18.1758 87.8077 15.8807 86.4286L16.3957 85.5714ZM29.1288 88.9831C25.4962 89.9518 22.3608 92.2606 20.1303 94.7697C19.0166 96.0225 18.1376 97.3152 17.5394 98.499C16.9362 99.6925 16.6382 100.736 16.6382 101.5H15.6382C15.6382 100.514 16.0104 99.3075 16.6469 98.0479C17.2884 96.7786 18.2186 95.4151 19.3829 94.1053C21.7083 91.4895 25.0038 89.0482 28.8712 88.0169L29.1288 88.9831Z" fill="black"/>
<path d="M58.3934 86.0115C58.1236 86.0704 57.9526 86.3368 58.0115 86.6066C58.0704 86.8764 58.3368 87.0474 58.6066 86.9885L58.3934 86.0115ZM83.1374 81.4807C83.4029 81.4049 83.5566 81.1281 83.4808 80.8626C83.4049 80.5971 83.1282 80.4434 82.8626 80.5192L83.1374 81.4807ZM58.6066 86.9885C61.1421 86.4353 63.7671 87.2566 66.2673 88.9308C68.7656 90.6038 71.0878 93.0963 72.9793 95.7743C74.8703 98.4518 76.3101 101.285 77.06 103.617C77.4357 104.785 77.6302 105.802 77.6342 106.599C77.6383 107.412 77.445 107.889 77.1746 108.12L77.8254 108.88C78.43 108.361 78.6388 107.514 78.6342 106.594C78.6295 105.656 78.4045 104.531 78.012 103.31C77.2255 100.865 75.7341 97.9414 73.7961 95.1974C71.8584 92.454 69.4536 89.861 66.8237 88.0999C64.1957 86.3402 61.2914 85.3792 58.3934 86.0115L58.6066 86.9885ZM77.1746 108.12C76.3967 108.787 75.1838 108.878 73.6713 108.406C72.1755 107.939 70.5088 106.953 68.9803 105.679C67.4538 104.406 66.0949 102.871 65.1998 101.334C64.297 99.7844 63.9079 98.3073 64.1862 97.1135L63.2124 96.8864C62.8495 98.4426 63.3788 100.195 64.3357 101.838C65.3002 103.494 66.7422 105.115 68.34 106.447C69.9357 107.777 71.7165 108.843 73.3733 109.36C75.0135 109.873 76.6584 109.88 77.8254 108.88L77.1746 108.12ZM64.1862 97.1135C65.1911 92.8032 68.164 89.3953 71.7968 86.8036C75.428 84.2131 79.6759 82.4697 83.1374 81.4807L82.8626 80.5192C79.324 81.5303 74.9641 83.3157 71.2161 85.9895C67.4698 88.6622 64.2923 92.2543 63.2124 96.8864L64.1862 97.1135Z" fill="black"/>
<path d="M32 76C32 78 32 84.5 32 84.5C33 85.8333 35.5 89 41.5 91.5C47.5 94 54.5 91.5 54.5 91.5L58.5 86.5" stroke="black" stroke-linecap="round" stroke-linejoin="round"/>
<path d="M32 84.5C30.0853 87.104 29 89.5 28 92C27 94.5 26.268 98.4999 28 102C29.4098 104.849 30.9752 107.023 34 108C37.6078 109.165 40.7607 108.47 44 106.5C46.7158 104.848 48.23 103.14 50 100.5C51.7998 97.8153 53.0984 95.1039 54 92" stroke="black" stroke-linecap="round" stroke-linejoin="round"/>
<path d="M31 140C32.9913 139.999 36 141 36 141L18 144C18 144 25.7424 140.003 31 140Z" fill="black"/>
<path d="M33 108L36 141M36 141C36 141 32.9913 139.999 31 140C25.7424 140.003 18 144 18 144L36 141Z" stroke="black" stroke-linecap="round" stroke-linejoin="round"/>
<path d="M44 140C42.0087 139.999 39 141 39 141L58 144C58 144 49.2576 140.003 44 140Z" fill="black"/>
<path d="M42 108L39 141M39 141C39 141 42.0087 139.999 44 140C49.2576 140.003 58 144 58 144L39 141Z" stroke="black" stroke-linecap="round" stroke-linejoin="round"/>
<path d="M11.0738 94.7781C21.207 86.5591 29.7054 88.3968 29.7054 88.3968C29.7054 88.3968 27.4369 93.0678 23.9213 95.901" stroke="black" stroke-linecap="round" stroke-linejoin="round"/>
<path d="M59.953 70.1656C72.6236 73.4376 75.1682 83.526 75.1682 83.526C75.1682 83.526 68.3791 77.1505 64 76" stroke="black" stroke-linecap="round" stroke-linejoin="round"/>
<path d="M34.3494 102.75C45.6107 106.806 52.9548 94.9718 52.9548 94.9718C52.9548 94.9718 44.4298 98.9978 40.5272 97.6228" stroke="black" stroke-linecap="round" stroke-linejoin="round"/>
<path d="M66 36.5C66.6667 37.5 68.7 39 71.5 37C74.3 35 76 30.5 76.5 28.5" stroke="black" stroke-linecap="round" stroke-linejoin="round"/>
<path d="M52.6463 35.6016C52.633 33.9561 51.5849 30.9811 47.4992 32.2449C43.4135 33.5087 38.7974 38.6082 37 41" stroke="black" stroke-linecap="round" stroke-linejoin="round"/>
<path d="M60.4787 85.1548C60.2997 85.6036 59.8203 85.9975 58.9265 86.2532C58.0408 86.5066 56.8363 86.5957 55.3806 86.5031C52.475 86.3184 48.6845 85.4178 44.7091 83.8318C40.7338 82.2457 37.3644 80.2897 35.1296 78.4235C34.01 77.4886 33.1976 76.5948 32.7297 75.8013C32.2574 75.0006 32.1808 74.3849 32.3598 73.9361C32.5389 73.4872 33.0183 73.0934 33.9121 72.8376C34.7977 72.5843 36.0022 72.4951 37.4579 72.5877C40.3636 72.7724 44.1541 73.673 48.1294 75.259C52.1048 76.8451 55.4742 78.8012 57.709 80.6673C58.8286 81.6022 59.6409 82.496 60.1089 83.2895C60.5812 84.0903 60.6578 84.7059 60.4787 85.1548Z" stroke="black" stroke-opacity="0.45" stroke-linejoin="round"/>
<path d="M52.8069 81.2858C52.77 81.3783 52.6468 81.5207 52.2754 81.627C51.9123 81.7309 51.3965 81.7724 50.7479 81.7312C49.4564 81.6491 47.7537 81.2466 45.9572 80.5299C44.1606 79.8131 42.6485 78.9329 41.6552 78.1035C41.1564 77.6869 40.8108 77.3017 40.6189 76.9763C40.4227 76.6436 40.4314 76.4555 40.4683 76.363C40.5052 76.2705 40.6284 76.1281 40.9998 76.0218C41.3629 75.9179 41.8787 75.8763 42.5273 75.9176C43.8188 75.9997 45.5215 76.4021 47.318 77.1189C49.1146 77.8357 50.6267 78.7159 51.62 79.5453C52.1188 79.9619 52.4644 80.3471 52.6563 80.6725C52.8525 81.0052 52.8438 81.1933 52.8069 81.2858Z" stroke="black" stroke-opacity="0.45" stroke-linejoin="round"/>
<path d="M19.5 11.5C19.1667 7.16668 19.9 -0.899993 25.5 1.50001C31.1 3.90001 27.8333 11.1667 25.5 14.5" stroke="black" stroke-linecap="round" stroke-linejoin="round"/>
<path d="M24.5 20L24 23.5" stroke="black" stroke-linecap="round" stroke-linejoin="round"/>
<g style="mix-blend-mode:multiply" opacity="0.5">
<path d="M57 81C70.8071 81 82 69.8071 82 56C82 42.1929 70.8071 31 57 31C43.1929 31 32 42.1929 32 56C32 69.8071 43.1929 81 57 81Z" fill="#79DC89"/>
</g>
</svg>
