<svg width="35" height="28" viewBox="0 0 35 28" fill="none" xmlns="http://www.w3.org/2000/svg">
<path d="M8.69995 11.5C8.69995 7.91015 11.6101 5 15.2 5C18.7898 5 21.7 7.91015 21.7 11.5C21.7 15.0899 18.7898 18 15.2 18C11.6101 18 8.69995 15.0899 8.69995 11.5ZM15.2 3C10.5055 3 6.69995 6.80558 6.69995 11.5C6.69995 16.1944 10.5055 20 15.2 20C17.1868 20 19.0145 19.3183 20.4618 18.176L26.9928 24.7071C27.3834 25.0976 28.0165 25.0976 28.4071 24.7071C28.7976 24.3166 28.7976 23.6834 28.4071 23.2929L21.876 16.7618C23.0182 15.3145 23.7 13.4869 23.7 11.5C23.7 6.80558 19.8944 3 15.2 3Z" fill="black"/>
</svg>
